<svg width="22" height="22" viewBox="0 0 22 22" fill="none" xmlns="http://www.w3.org/2000/svg">
<g id="more-vertical">
<g id="Group 1410086759">
<path id="Vector" d="M8.25033 12.8327C9.26285 12.8327 10.0837 12.0119 10.0837 10.9993C10.0837 9.98683 9.26285 9.16602 8.25033 9.16602C7.2378 9.16602 6.41699 9.98683 6.41699 10.9993C6.41699 12.0119 7.2378 12.8327 8.25033 12.8327Z" fill="#D9D9D9"/>
<path id="Vector_2" d="M13.7503 12.8327C14.7628 12.8327 15.5837 12.0119 15.5837 10.9993C15.5837 9.98683 14.7628 9.16602 13.7503 9.16602C12.7378 9.16602 11.917 9.98683 11.917 10.9993C11.917 12.0119 12.7378 12.8327 13.7503 12.8327Z" fill="#D9D9D9"/>
<path id="Vector_3" d="M8.25033 6.41667C9.26285 6.41667 10.0837 5.59586 10.0837 4.58333C10.0837 3.57081 9.26285 2.75 8.25033 2.75C7.2378 2.75 6.41699 3.57081 6.41699 4.58333C6.41699 5.59586 7.2378 6.41667 8.25033 6.41667Z" fill="#D9D9D9"/>
<path id="Vector_4" d="M13.7503 6.41667C14.7628 6.41667 15.5837 5.59586 15.5837 4.58333C15.5837 3.57081 14.7628 2.75 13.7503 2.75C12.7378 2.75 11.917 3.57081 11.917 4.58333C11.917 5.59586 12.7378 6.41667 13.7503 6.41667Z" fill="#D9D9D9"/>
<path id="Vector_5" d="M8.25033 19.2507C9.26285 19.2507 10.0837 18.4298 10.0837 17.4173C10.0837 16.4048 9.26285 15.584 8.25033 15.584C7.2378 15.584 6.41699 16.4048 6.41699 17.4173C6.41699 18.4298 7.2378 19.2507 8.25033 19.2507Z" fill="#D9D9D9"/>
<path id="Vector_6" d="M13.7503 19.2507C14.7628 19.2507 15.5837 18.4298 15.5837 17.4173C15.5837 16.4048 14.7628 15.584 13.7503 15.584C12.7378 15.584 11.917 16.4048 11.917 17.4173C11.917 18.4298 12.7378 19.2507 13.7503 19.2507Z" fill="#D9D9D9"/>
</g>
</g>
</svg>
